<svg xmlns="http://www.w3.org/2000/svg" xmlns:xlink="http://www.w3.org/1999/xlink" style="display:none">
  <!-- ==================== -->
  <!-- ICONOS -->
  <!-- ==================== -->
  <symbol id="calculator" viewBox="0 0 20 20">
    <path fill="#000000" fill-rule="evenodd" d="M6 2a2 2 0 0 0-2 2v12a2 2 0 0 0 2 2h8a2 2 0 0 0 2-2V4a2 2 0 0 0-2-2zm1 2a1 1 0 0 0 0 2h6a1 1 0 1 0 0-2zm6 7a1 1 0 0 1 1 1v3a1 1 0 1 1-2 0v-3a1 1 0 0 1 1-1m-3 3a1 1 0 1 0 0 2h.01a1 1 0 1 0 0-2zm-4 1a1 1 0 0 1 1-1h.01a1 1 0 1 1 0 2H7a1 1 0 0 1-1-1m1-4a1 1 0 1 0 0 2h.01a1 1 0 1 0 0-2zm2 1a1 1 0 0 1 1-1h.01a1 1 0 1 1 0 2H10a1 1 0 0 1-1-1m4-4a1 1 0 1 0 0 2h.01a1 1 0 1 0 0-2zM9 9a1 1 0 0 1 1-1h.01a1 1 0 1 1 0 2H10a1 1 0 0 1-1-1M7 8a1 1 0 0 0 0 2h.01a1 1 0 0 0 0-2z" clip-rule="evenodd"/>
  </symbol>
  <symbol id="plant" viewBox="0 0 256 256">
    <path fill="#0bb407" d="M200 144h-76.7l22.41-22.41a59.55 59.55 0 0 0 26.1 6.36a49.56 49.56 0 0 0 25.89-7.22c23.72-14.36 36.43-47.6 34-88.92a8 8 0 0 0-7.52-7.52c-41.32-2.43-74.56 10.28-88.93 34c-9.35 15.45-9.59 34.11-.86 52L120 124.68l-12.21-12.21c6-13.25 5.57-27-1.39-38.48C95.53 56 70.61 46.41 39.73 48.22a8 8 0 0 0-7.51 7.51C30.4 86.6 40 111.52 58 122.4a38.2 38.2 0 0 0 20 5.6a45 45 0 0 0 18.52-4.19L108.69 136l-8 8H56a8 8 0 0 0 0 16h9.59l13.21 59.47A15.89 15.89 0 0 0 94.42 232h67.17a15.91 15.91 0 0 0 15.62-12.53L190.42 160H200a8 8 0 0 0 0-16"/>
  </symbol>

  <!-- ==================== -->
  <!-- RED SOCIAL -->
  <!-- ==================== -->
  <symbol id="github" viewBox="0 0 1024 1024">
    <path fill-rule="evenodd" clip-rule="evenodd" d="M8 0C3.58 0 0 3.58 0 8C0 11.54 2.29 14.53 5.47 15.59C5.87 15.66 6.02 15.42 6.02 15.21C6.02 15.02 6.01 14.39 6.01 13.72C4 14.09 3.48 13.23 3.32 12.78C3.23 12.55 2.84 11.84 2.5 11.65C2.22 11.5 1.82 11.13 2.49 11.12C3.12 11.11 3.57 11.7 3.72 11.94C4.44 13.15 5.59 12.81 6.05 12.6C6.12 12.08 6.33 11.73 6.56 11.53C4.78 11.33 2.92 10.64 2.92 7.58C2.92 6.71 3.23 5.99 3.74 5.43C3.66 5.23 3.38 4.41 3.82 3.31C3.82 3.31 4.49 3.1 6.02 4.13C6.66 3.95 7.34 3.86 8.02 3.86C8.7 3.86 9.38 3.95 10.02 4.13C11.55 3.09 12.22 3.31 12.22 3.31C12.66 4.41 12.38 5.23 12.3 5.43C12.81 5.99 13.12 6.7 13.12 7.58C13.12 10.65 11.25 11.33 9.47 11.53C9.76 11.78 10.01 12.26 10.01 13.01C10.01 14.08 10 14.94 10 15.21C10 15.42 10.15 15.67 10.55 15.59C13.71 14.53 16 11.53 16 8C16 3.58 12.42 0 8 0Z" transform="scale(64)" fill="#fff"/>
  </symbol>
</svg>
